<?xml version="1.0" encoding="utf-8"?>
<svg version="1.1"
	 id="Layer_1" xmlns:cc="http://creativecommons.org/ns#" xmlns:dc="http://purl.org/dc/elements/1.1/" xmlns:inkscape="http://www.inkscape.org/namespaces/inkscape" xmlns:rdf="http://www.w3.org/1999/02/22-rdf-syntax-ns#" xmlns:sodipodi="http://sodipodi.sourceforge.net/DTD/sodipodi-0.dtd" xmlns:svg="http://www.w3.org/2000/svg"
	 xmlns="http://www.w3.org/2000/svg" xmlns:xlink="http://www.w3.org/1999/xlink" x="0px" y="0px" viewBox="0 0 88 88"
	 style="enable-background:new 0 0 88 88;" xml:space="preserve">
<style type="text/css">
	.st0{fill:#F7F6F4;}
</style>
<g transform="translate(0,-952.36218)">
	<path class="st0" d="M44,952.4c-24.3,0-44,19.7-44,44s19.7,44,44,44s44-19.7,44-44c0-21.4-15.4-39.3-35.7-43.2
		c-1.1-0.3-2.2,0.3-2.5,1.3s0.3,2.2,1.3,2.5c0.1,0,0.3,0.1,0.4,0.1C70,960.6,84,976.8,84,996.4c0,22.1-17.9,40-40,40s-40-17.9-40-40
		s17.9-40,40-40c1.1,0,2-0.9,2-2C46,953.3,45.2,952.4,44,952.4C44,952.4,44,952.4,44,952.4z M33.8,972.3c-1,0.1-1.8,1-1.8,2v44
		c0,1.1,0.9,2,2,2s2-0.9,2-2c0,0,0,0,0-0.1v-44c0-1.1-0.9-2-2-2C34,972.3,33.9,972.3,33.8,972.3z M53.8,972.3c-1,0.1-1.8,1-1.8,2v44
		c0,1.1,0.9,2,2,2s2-0.9,2-2c0,0,0,0,0-0.1v-44c0-1.1-0.9-2-2-2C54,972.3,53.9,972.3,53.8,972.3z"/>
</g>
</svg>
