<?xml version="1.0" encoding="utf-8"?>
<svg version="1.1"
	 id="Layer_1" xmlns:cc="http://creativecommons.org/ns#" xmlns:dc="http://purl.org/dc/elements/1.1/" xmlns:inkscape="http://www.inkscape.org/namespaces/inkscape" xmlns:rdf="http://www.w3.org/1999/02/22-rdf-syntax-ns#" xmlns:sodipodi="http://sodipodi.sourceforge.net/DTD/sodipodi-0.dtd" xmlns:svg="http://www.w3.org/2000/svg"
	 xmlns="http://www.w3.org/2000/svg" xmlns:xlink="http://www.w3.org/1999/xlink" x="0px" y="0px" viewBox="0 0 88 88"
	 style="enable-background:new 0 0 88 88;" xml:space="preserve">
<style type="text/css">
	.st0{fill:#F7F6F4;}
</style>
<g transform="translate(0,-952.36218)">
	<path class="st0" d="M44,952.4c-24.3,0-44,19.7-44,44c0,24.3,19.7,44,44,44s44-19.7,44-44c0-21.4-15.4-39.3-35.7-43.2
		c-1.1-0.3-2.2,0.3-2.5,1.3s0.3,2.2,1.3,2.5c0.1,0,0.3,0.1,0.4,0.1C70,960.6,84,976.8,84,996.4c0,22.1-17.9,40-40,40s-40-17.9-40-40
		c0-22.1,17.9-40,40-40c1.1,0,2-0.9,2-2C46,953.3,45.2,952.4,44,952.4C44,952.4,44,952.4,44,952.4z M44,972.4c-13.2,0-24,10.8-24,24
		s10.8,24,24,24c11.3,0,20.9-7.9,23.4-18.5c0.3-1.1-0.4-2.2-1.5-2.4s-2.2,0.4-2.4,1.5c-2.1,8.8-10,15.4-19.5,15.4
		c-11.1,0-20-8.9-20-20c0-11.1,8.9-20,20-20c4.8,0,9.3,1.7,12.7,4.5c0.9,0.7,2.1,0.6,2.8-0.3s0.6-2.1-0.3-2.8c0,0,0,0,0,0
		C55.1,974.4,49.8,972.4,44,972.4z M65.7,990.4c-0.4,0.1-0.8,0.2-1.1,0.5l-7,6.7c-0.8,0.8-0.8,2-0.1,2.8s2,0.8,2.8,0.1l0,0l5.6-5.4
		l5.6,5.4c0.8,0.8,2.1,0.7,2.8-0.1s0.7-2.1-0.1-2.8l0,0l-7-6.7C66.9,990.5,66.3,990.3,65.7,990.4z"/>
</g>
</svg>
