<svg version="1.1" id="Layer_1" xmlns="http://www.w3.org/2000/svg" xmlns:xlink="http://www.w3.org/1999/xlink" x="0px" y="0px"
	 viewBox="0 0 18.5 18.5" style="enable-background:new 0 0 18.5 18.5;" xml:space="preserve">
<path d="M6.7,0.5C2.8,0.7-0.2,4,0,7.8s3.5,6.8,7.3,6.7c3.9-0.2,6.8-3.5,6.7-7.3c0,0,0,0,0,0C13.8,3.3,10.5,0.3,6.7,0.5z M7.2,12.5
	c-2.8,0.1-5.1-2-5.2-4.8C1.9,5,4,2.7,6.8,2.5c2.7-0.1,5.1,2,5.2,4.7C12.1,10,10,12.3,7.2,12.5C7.2,12.5,7.2,12.5,7.2,12.5L7.2,12.5z
	"/>
<path d="M18.1,16.2L14,12.4c-0.4-0.3-1.1-0.3-1.4,0.2c-0.3,0.4-0.3,1,0.1,1.3l4.2,3.8c0.4,0.4,1,0.4,1.4,0
	C18.6,17.4,18.6,16.7,18.1,16.2C18.2,16.3,18.2,16.3,18.1,16.2z"/>
</svg>
